# xmcd
#
# Track frame offsets:
#	150
#	14045
#	24752
#	38665
#	53428
#	62817
#	76198
#	88203
#	100072
#	111995
#	124607
#	135308
#
# Disc length: 1965 seconds
#
# Revision: 1
# Processed by: cddbd v1.4PL0 Copyright (c) Steve Scherf et al.
# Submitted via: audiograbber 1.81.01
#
DISCID=8c07ab0c
DTITLE=Marino Marini - I Grandi Sucessi Originali cd1
DYEAR=1900
DGENRE=Pop
TTITLE0=La Piu Bella Del Mondo
TTITLE1=Guarda Che Luna
TTITLE2=Io Mammeta E Tu
TTITLE3=Guaglione
TTITLE4=Pezzettini D Bikini
TTITLE5=Marina
TTITLE6=Aummo Aummo
TTITLE7=Lettera A Pinocchio
TTITLE8=Chella Lla
TTITLE9=Pimpollo
TTITLE10=Non Sei Mai Stata Cosi Bella
TTITLE11=La Panse
EXTD=
EXTT0=
EXTT1=
EXTT2=
EXTT3=
EXTT4=
EXTT5=
EXTT6=
EXTT7=
EXTT8=
EXTT9=
EXTT10=
EXTT11=
PLAYORDER=
